<svg width="52" height="52" viewBox="0 0 52 52" fill="none" xmlns="http://www.w3.org/2000/svg">
<rect x="0.5" y="0.5" width="51" height="51" rx="5.5" fill="url(#paint0_linear_1_3400)" stroke="url(#paint1_linear_1_3400)"/>
<g filter="url(#filter0_d_1_3400)">
<path d="M16.1818 26C14.9818 26 14 25 14 23.7778V18.2222C14 17 14.9818 16 16.1818 16H24.9091C26.1091 16 27.0909 17 27.0909 18.2222V23.7778C27.0909 25 26.1091 26 24.9091 26H22.7273V29.3333L19.4545 26H16.1818ZM35.8182 32.6667C37.0182 32.6667 38 31.6667 38 30.4444V24.8889C38 23.6667 37.0182 22.6667 35.8182 22.6667H29.2727V23.7778C29.2727 26.2222 27.3091 28.2222 24.9091 28.2222V30.4444C24.9091 31.6667 25.8909 32.6667 27.0909 32.6667H29.2727V36L32.5455 32.6667H35.8182Z" fill="white"/>
</g>
<defs>
<filter id="filter0_d_1_3400" x="0" y="3" width="52" height="48" filterUnits="userSpaceOnUse" color-interpolation-filters="sRGB">
<feFlood flood-opacity="0" result="BackgroundImageFix"/>
<feColorMatrix in="SourceAlpha" type="matrix" values="0 0 0 0 0 0 0 0 0 0 0 0 0 0 0 0 0 0 127 0" result="hardAlpha"/>
<feOffset dy="1"/>
<feGaussianBlur stdDeviation="7"/>
<feColorMatrix type="matrix" values="0 0 0 0 1 0 0 0 0 1 0 0 0 0 1 0 0 0 0.55 0"/>
<feBlend mode="normal" in2="BackgroundImageFix" result="effect1_dropShadow_1_3400"/>
<feBlend mode="normal" in="SourceGraphic" in2="effect1_dropShadow_1_3400" result="shape"/>
</filter>
<linearGradient id="paint0_linear_1_3400" x1="26" y1="0" x2="26" y2="52" gradientUnits="userSpaceOnUse">
<stop stop-color="white" stop-opacity="0"/>
<stop offset="1" stop-color="white" stop-opacity="0.12"/>
</linearGradient>
<linearGradient id="paint1_linear_1_3400" x1="26" y1="0" x2="26" y2="52" gradientUnits="userSpaceOnUse">
<stop stop-color="white" stop-opacity="0.2"/>
<stop offset="1" stop-color="white" stop-opacity="0.4"/>
</linearGradient>
</defs>
</svg>
